#N canvas 44 107 1242 679 10;
#X obj 189 45 samplerate~;
#X floatatom 189 67 5 0 0 0 - - -, f 5;
#X obj 204 25 r pd-dsp-started;
#X obj 189 25 bng 15 250 50 0 empty empty empty 17 7 0 10 -262144 -1
-1;
#X obj 385 56 t b b b;
#X obj 204 181 / 1;
#X floatatom 202 281 5 0 0 0 - - -, f 5;
#X obj 37 25 bng 15 250 50 0 empty empty empty 17 7 0 10 -262144 -1
-1;
#X obj 53 25 r pd-dsp-stopped;
#X msg 40 108 0;
#X obj 81 108 t b b;
#X obj 344 281 t b b;
#X obj 509 140 phasor~;
#X obj 510 90 sig~, f 5;
#X obj 655 156 sidekik-scope;
#X floatatom 510 55 5 0 0 0 - - -, f 5;
#X obj 510 208 expr~ $v1 > 0.5;
#X obj 605 320 snapshot~;
#X obj 436 301 metro;
#X msg 267 323 1000;
#X floatatom 211 426 5 0 0 0 - - -, f 5;
#X obj 431 332 bng 15 250 50 0 empty empty empty 17 7 0 10 -262144
-1 -1;
#X floatatom 605 342 5 0 0 0 - - -, f 5;
#X obj 440 260 tgl 15 0 empty empty empty 17 7 0 10 -262144 -1 -1 1
1;
#X obj 209 449 * 2;
#X msg 355 147 22050;
#X obj 211 389 / 1;
#X obj 512 351 *~ 2;
#X obj 512 373 -~ 1;
#X obj 573 415 snapshot~;
#X floatatom 573 440 5 0 0 0 - - -, f 5;
#X obj 700 396 pcycik-scope;
#X connect 0 0 1 0;
#X connect 1 0 5 0;
#X connect 2 0 0 0;
#X connect 2 0 3 0;
#X connect 2 0 4 0;
#X connect 4 0 1 0;
#X connect 4 1 25 0;
#X connect 4 2 11 0;
#X connect 5 0 6 0;
#X connect 6 0 15 0;
#X connect 6 0 26 1;
#X connect 8 0 7 0;
#X connect 8 0 9 0;
#X connect 9 0 5 0;
#X connect 10 0 9 0;
#X connect 10 0 6 0;
#X connect 10 1 25 0;
#X connect 10 1 19 0;
#X connect 11 0 6 0;
#X connect 11 1 19 0;
#X connect 11 1 18 0;
#X connect 12 0 14 0;
#X connect 12 0 16 0;
#X connect 13 0 12 0;
#X connect 15 0 13 0;
#X connect 16 0 17 0;
#X connect 16 0 27 0;
#X connect 17 0 22 0;
#X connect 18 0 17 0;
#X connect 18 0 21 0;
#X connect 18 0 29 0;
#X connect 19 0 26 0;
#X connect 20 0 24 0;
#X connect 23 0 18 0;
#X connect 24 0 18 0;
#X connect 25 0 5 1;
#X connect 26 0 20 0;
#X connect 27 0 28 0;
#X connect 28 0 29 0;
#X connect 28 0 31 0;
#X connect 29 0 30 0;
