#N canvas 822 141 674 598 10;
#X obj 60 77 inlet;
#X obj 60 99 select 1 0;
#X obj 60 121 bng 15 250 50 0 empty empty empty 17 7 0 10 -262144 -1
-1;
#X obj 87 122 bng 15 250 50 0 empty empty empty 17 7 0 10 -262144 -1
-1;
#X obj 26 146 s \$0-startclk;
#X obj 60 169 s \$0-stopclk;
#X obj 206 75 inlet;
#X obj 206 97 f 440;
#X floatatom 206 119 5 0 0 0 - - -, f 5;
#X obj 206 138 s \$0-calc-clkrate;
#X obj 401 70 r \$0-calc-clkrate;
#X obj 401 113 sig~;
#X floatatom 401 92 5 0 0 0 - - -, f 5;
#X obj 401 135 phasor~;
#X obj 401 157 cos~;
#X obj 544 174 snapshot~;
#X floatatom 544 197 0 0 0 0 - - -;
#X obj 544 145 metro 100;
#X obj 544 119 tgl 15 0 empty empty empty 17 7 0 10 -262144 -1 -1 0
1;
#X obj 401 179 expr~ $v1 < 0;
#X obj 400 453 outlet~;
#X obj 508 253 r \$0-startclk;
#X obj 508 275 f 1;
#X obj 401 361 *~;
#X obj 524 299 r \$0-stopclk;
#X obj 524 321 f 0;
#X obj 401 201 *~ 2;
#X obj 401 223 -~ 1;
#X text 18 12 inp: (int toggle) start \, stop clk [hot];
#X text 141 43 inp: (int) clk rate in hz [hot];
#X connect 0 0 1 0;
#X connect 1 0 2 0;
#X connect 1 1 3 0;
#X connect 2 0 4 0;
#X connect 3 0 5 0;
#X connect 6 0 7 0;
#X connect 7 0 8 0;
#X connect 8 0 9 0;
#X connect 10 0 12 0;
#X connect 11 0 13 0;
#X connect 12 0 11 0;
#X connect 13 0 14 0;
#X connect 14 0 15 0;
#X connect 14 0 19 0;
#X connect 15 0 16 0;
#X connect 17 0 15 0;
#X connect 18 0 17 0;
#X connect 19 0 26 0;
#X connect 21 0 22 0;
#X connect 22 0 23 1;
#X connect 23 0 20 0;
#X connect 24 0 25 0;
#X connect 25 0 23 1;
#X connect 26 0 27 0;
#X connect 27 0 23 0;
