#N canvas 345 470 413 215 10;
#X obj 31 15 inlet;
#X obj 31 88 outlet;
#X obj 132 16 loadbang;
#X obj 31 37 *;
#X obj 132 40 f \$1;
#X obj 132 62 - \$2;
#X obj 31 59 + \$2;
#X text 17 132 Set upp and lower bounds to transform 0..1 range input
to. First argument is upper \, secound is lower boundry.;
#X connect 0 0 3 0;
#X connect 2 0 4 0;
#X connect 3 0 6 0;
#X connect 4 0 5 0;
#X connect 5 0 3 1;
#X connect 6 0 1 0;
#X coords 0 215 1 214 50 80 0;
