#N canvas 128 191 633 382 10;
#X obj 27 70 inlet;
#X obj 317 70 inlet;
#X obj 317 122 i 3;
#X obj 315 210 pow;
#X floatatom 315 232 5 0 0 0 - - -, f 5;
#X msg 271 173 10;
#X obj 315 251 s \$0-calc-factor;
#X obj 148 70 r \$0-calc-factor;
#X obj 152 173 f 1;
#X obj 27 122 t f b;
#X obj 27 204 *;
#X obj 27 272 /;
#X floatatom 27 294 5 0 0 0 - - -, f 5;
#X obj 27 313 outlet;
#X floatatom 148 122 5 0 0 0 - - -, f 5;
#X obj 7 226 ftoint-wrap;
#X obj 317 146 t b f;
#X text 24 0 fdecimals: round float to flot with n decimals;
#X text 23 40 inp f: float input (hot);
#X text 311 40 inp dec: number of decimals to round to (cold);
#X connect 0 0 9 0;
#X connect 1 0 2 0;
#X connect 2 0 16 0;
#X connect 3 0 4 0;
#X connect 4 0 6 0;
#X connect 5 0 3 0;
#X connect 7 0 14 0;
#X connect 8 0 10 1;
#X connect 8 0 11 1;
#X connect 9 0 10 0;
#X connect 9 1 8 0;
#X connect 10 0 15 0;
#X connect 11 0 12 0;
#X connect 12 0 13 0;
#X connect 14 0 8 1;
#X connect 15 0 11 0;
#X connect 16 0 5 0;
#X connect 16 1 3 1;
