#N canvas 619 256 665 501 10;
#X obj 170 65 inlet;
#X floatatom 170 109 5 0 0 0 - - -, f 5;
#X obj 170 128 s \$0-calc-clkrate;
#X obj 170 88 f 44100;
#X obj 47 58 inlet;
#X obj 47 80 select 1 0;
#X obj 47 102 bng 15 250 50 0 empty empty empty 17 7 0 10 -262144 -1
-1;
#X obj 74 103 bng 15 250 50 0 empty empty empty 17 7 0 10 -262144 -1
-1;
#X obj 13 127 s \$0-startclk;
#X obj 47 150 s \$0-stopclk;
#X text 18 10 inp: (int toggle) start \, stop clk [hot];
#X obj 341 158 r \$0-calc-clkrate;
#X obj 465 58 inlet;
#X text 397 17 inp: (float normalized) speed amount [hot];
#X obj 465 112 normtorange 44100 1;
#X obj 465 134 ftoint-wrap;
#X floatatom 465 156 5 0 0 0 - - -, f 5;
#X floatatom 465 83 5 0 0 0 - - -, f 5;
#X obj 520 76 r \$0-calc-clkrate;
#X obj 341 210 f 44100;
#X floatatom 341 232 5 0 0 0 - - -, f 5;
#X obj 341 251 + 1;
#X obj 465 177 t b f;
#X obj 432 274 -;
#X floatatom 432 296 5 0 0 0 - - -, f 5;
#X obj 432 315 s \$0-calc-clktempo;
#X obj 136 259 r \$0-calc-clktempo;
#X obj 136 281 t b f;
#X msg 183 301 set tempo \$1 samp;
#X msg 183 328 tempo 2085 samp;
#X obj 183 380 metro 1 1 samp;
#X obj 33 312 r \$0-startclk;
#X obj 31 370 r \$0-stopclk;
#X obj 183 402 bng 15 250 50 0 empty empty empty 17 7 0 10 -262144
-1 -1;
#X obj 183 422 outlet;
#X obj 225 66 loadbang;
#X msg 31 392 0;
#X msg 33 334 1;
#X text 346 399 generate an event clock with glockwerk.;
#X text 131 41 inp: (int) samplerate or masterclk rate [cold];
#X connect 0 0 3 0;
#X connect 1 0 2 0;
#X connect 3 0 1 0;
#X connect 4 0 5 0;
#X connect 5 0 6 0;
#X connect 5 1 7 0;
#X connect 6 0 8 0;
#X connect 7 0 9 0;
#X connect 11 0 19 0;
#X connect 12 0 17 0;
#X connect 14 0 15 0;
#X connect 15 0 16 0;
#X connect 16 0 22 0;
#X connect 17 0 14 0;
#X connect 18 0 14 1;
#X connect 19 0 20 0;
#X connect 20 0 21 0;
#X connect 21 0 23 0;
#X connect 22 0 19 0;
#X connect 22 1 23 1;
#X connect 23 0 24 0;
#X connect 24 0 25 0;
#X connect 26 0 27 0;
#X connect 27 0 29 0;
#X connect 27 1 28 0;
#X connect 28 0 29 0;
#X connect 29 0 30 0;
#X connect 30 0 33 0;
#X connect 31 0 37 0;
#X connect 32 0 36 0;
#X connect 33 0 34 0;
#X connect 35 0 3 0;
#X connect 36 0 30 0;
#X connect 37 0 30 0;
