#N canvas 125 236 805 576 10;
#N canvas 0 50 450 278 (subpatch) 0;
#X array \$0-scope 512 float 0;
#X coords 0 1 511 -1 100 60 1 0 0;
#X restore 107 130 graph;
#X obj 291 103 inlet~;
#X obj 192 113 cnv 5 5 5 empty empty SIDEKIK~ 0 0 0 12 -233017 -66577
0;
#X obj 108 202 cnv 5 5 5 empty empty HappyThoughtz_Audio 0 0 0 8 -262144
-1 0;
#X obj 290 190 tabwrite~ \$0-scope;
#X obj 347 103 loadbang;
#X msg 347 125 1;
#X obj 347 147 metro 200;
#X connect 1 0 4 0;
#X connect 5 0 6 0;
#X connect 6 0 7 0;
#X connect 7 0 4 0;
#X coords 0 -1 1 1 150 110 2 100 100;
