#N canvas 653 411 549 358 10;
#X obj 10 131 inlet~;
#X obj 377 41 inlet;
#X obj 331 74 == 0;
#X obj 367 74 == 1;
#X obj 403 74 == 2;
#X obj 441 74 == 3;
#X msg 331 96 \$1 20;
#X obj 331 118 line~;
#X obj 194 288 outlet~;
#X obj 82 130 inlet~;
#X obj 146 129 inlet~;
#X obj 211 131 inlet~;
#X obj 76 205 *~;
#X msg 371 97 \$1 20;
#X obj 371 119 line~;
#X obj 145 210 *~;
#X msg 411 98 \$1 20;
#X obj 411 120 line~;
#X msg 452 97 \$1 20;
#X obj 452 119 line~;
#X obj 215 212 *~;
#X obj 286 210 *~;
#X text 9 30 route 4 audio inputs to one audio output.;
#X text 9 41 input to route to output is set using right-most inlet
;
#X text 9 52 input numbers are zero based \, so 0-3.;
#X text 386 326 by happy thoughtz audio.;
#X connect 0 0 12 0;
#X connect 1 0 2 0;
#X connect 1 0 3 0;
#X connect 1 0 4 0;
#X connect 1 0 5 0;
#X connect 2 0 6 0;
#X connect 3 0 13 0;
#X connect 4 0 16 0;
#X connect 5 0 18 0;
#X connect 6 0 7 0;
#X connect 7 0 12 1;
#X connect 9 0 15 0;
#X connect 10 0 20 0;
#X connect 11 0 21 0;
#X connect 12 0 8 0;
#X connect 13 0 14 0;
#X connect 14 0 15 1;
#X connect 15 0 8 0;
#X connect 16 0 17 0;
#X connect 17 0 20 1;
#X connect 18 0 19 0;
#X connect 19 0 21 1;
#X connect 20 0 8 0;
#X connect 21 0 8 0;
