#N canvas 710 158 1195 866 10;
#X obj 31 146 phasor~ 440;
#X obj 32 195 cos~;
#X obj 30 279 pcycik-scope;
#X obj 202 118 * 0.99;
#X obj 202 140 pack 0 50;
#X obj 202 162 line~;
#X obj 202 96 * 0.00787402;
#X obj 206 48 hsl 128 15 0 127 0 0 empty empty empty -2 -8 0 10 -262144
-1 -1 0 1;
#X obj 32 217 expr~ $v1 < $v2;
#X obj 579 111 sr;
#X floatatom 579 133 5 0 0 0 - - -, f 5;
#X obj 579 87 bng 15 250 50 0 empty empty empty 17 7 0 10 -262144 -1
-1;
#X obj 734 69 hsl 128 15 0 1 0 0 empty empty empty -2 -8 0 10 -262144
-1 -1 0 1;
#X floatatom 731 89 5 0 0 0 - - -, f 5;
#X floatatom 731 166 10 0 0 0 - - -, f 10;
#X msg 786 109 11025;
#X msg 842 110 210;
#X msg 671 112 reset;
#X text 922 67 test patches for sr \, normtorange .....;
#X obj 731 144 normtorange 44100 0;
#X obj 744 323 clk-div;
#X obj 786 271 hsl 128 15 0 1 0 0 empty empty empty -2 -8 0 10 -262144
-1 -1 0 1;
#X floatatom 783 291 5 0 0 0 - - -, f 5;
#X connect 0 0 1 0;
#X connect 1 0 8 0;
#X connect 3 0 4 0;
#X connect 4 0 5 0;
#X connect 5 0 8 1;
#X connect 6 0 3 0;
#X connect 7 0 6 0;
#X connect 8 0 2 0;
#X connect 9 0 10 0;
#X connect 11 0 9 0;
#X connect 12 0 13 0;
#X connect 13 0 19 0;
#X connect 15 0 19 1;
#X connect 16 0 19 2;
#X connect 17 0 19 0;
#X connect 19 0 14 0;
#X connect 21 0 22 0;
#X connect 22 0 20 2;
