#N canvas 0 23 1282 740 10;
#X obj 31 146 phasor~ 440;
#X obj 32 195 cos~;
#X obj 202 118 * 0.99;
#X obj 202 140 pack 0 50;
#X obj 202 194 line~;
#X obj 202 96 * 0.00787402;
#X obj 206 48 hsl 128 15 0 127 0 0 empty empty empty -2 -8 0 10 -262144
-1 -1 0 1;
#X obj 32 217 expr~ $v1 < $v2;
#X obj 581 146 sr;
#X floatatom 581 175 5 0 0 0 - - -, f 5;
#X obj 581 122 bng 15 250 50 0 empty empty empty 17 7 0 10 -262144
-1 -1;
#X obj 635 278 hsl 128 15 0 1 0 0 empty empty empty -2 -8 0 10 -262144
-1 -1 12700 1;
#X floatatom 632 298 5 0 0 0 - - -, f 5;
#X floatatom 632 375 10 0 0 0 - - -, f 10;
#X msg 687 318 11025;
#X msg 753 319 210;
#X msg 582 321 reset;
#X obj 564 443 hsl 128 15 0 1 0 0 empty empty empty -2 -8 0 10 -262144
-1 -1 600 1;
#X floatatom 571 463 5 0 0 0 - - -, f 5;
#X floatatom 578 559 10 0 0 0 - - -, f 10;
#X floatatom 687 563 10 0 0 0 - - -, f 10;
#X floatatom 632 474 5 0 24 0 - - -, f 5;
#X floatatom 683 485 5 0 0 0 - - -, f 5;
#X obj 578 536 ftoint-wrap;
#X obj 704 459 bng 15 250 50 0 empty empty empty 17 7 0 10 -262144
-1 -1;
#X obj 1036 695 fdecimals;
#X floatatom 1087 663 5 0 0 0 - - -, f 5;
#X obj 974 630 hsl 128 15 0 1 0 0 empty empty empty -2 -8 0 10 -262144
-1 -1 0 1;
#X floatatom 972 649 10 0 0 0 - - -, f 10;
#X floatatom 1036 717 10 0 0 0 - - -, f 10;
#X obj 632 353 normtorange 44100 0;
#X obj 942 229 clockwerk~;
#X obj 942 200 tgl 15 0 empty empty empty 17 7 0 10 -262144 -1 -1 0
1;
#X obj 1058 139 sr;
#X obj 1058 116 bng 15 250 50 0 empty empty empty 17 7 0 10 -262144
-1 -1;
#X floatatom 999 205 10 0 0 0 - - -, f 10;
#X floatatom 202 162 5 0 0 0 - - -, f 5;
#X obj 275 219 snapshot~;
#X floatatom 275 242 0 0 0 0 - - -;
#X obj 285 192 metro 100;
#X obj 285 157 bng 15 250 50 0 empty empty empty 17 7 0 10 -262144
-1 -1;
#X obj 943 277 pcycik-scope;
#X text 577 10 test patches for sr \, normtorange \, sr-div \, fdecimals
\, clockwerk~;
#X text 970 603 round to decimals with fdecimals;
#X text 558 414 divide sample rate per int or amount range with sr-div
;
#X text 575 241 transform a normalized range into a bounded range with
normtorange;
#X text 580 80 get the current dsp smaplerate with sr;
#X text 933 78 generate a (rect) clock signal with clockwerk~;
#X obj 999 183 sr-div;
#X obj 633 507 sr-div;
#X obj 104 563 glockwerk;
#X obj 104 540 tgl 15 0 empty empty empty 17 7 0 10 -262144 -1 -1 0
1;
#X obj 104 585 bng 15 250 50 0 empty empty empty 17 7 0 10 -262144
-1 -1;
#X obj 104 605 evt-acc;
#X obj 143 584 bng 15 250 50 0 empty empty empty 17 7 0 10 -262144
-1 -1;
#X floatatom 104 627 10 0 0 0 - - -, f 10;
#X obj 129 480 sr;
#X floatatom 129 509 5 0 0 0 - - -, f 5;
#X obj 129 456 bng 15 250 50 0 empty empty empty 17 7 0 10 -262144
-1 -1;
#X obj 184 514 hsl 128 15 0 1 0 0 empty empty empty -2 -8 0 10 -262144
-1 -1 12100 1;
#X floatatom 181 534 5 0 0 0 - - -, f 5;
#X text 56 418 generate an evt clock signal with glockwerk;
#X msg 1017 153 4;
#X connect 0 0 1 0;
#X connect 1 0 7 0;
#X connect 2 0 3 0;
#X connect 3 0 36 0;
#X connect 4 0 7 1;
#X connect 4 0 37 0;
#X connect 5 0 2 0;
#X connect 6 0 5 0;
#X connect 8 0 9 0;
#X connect 10 0 8 0;
#X connect 11 0 12 0;
#X connect 12 0 30 0;
#X connect 14 0 30 1;
#X connect 15 0 30 2;
#X connect 16 0 30 0;
#X connect 17 0 18 0;
#X connect 18 0 49 0;
#X connect 21 0 49 1;
#X connect 22 0 49 2;
#X connect 23 0 19 0;
#X connect 24 0 22 0;
#X connect 25 0 29 0;
#X connect 26 0 25 1;
#X connect 27 0 28 0;
#X connect 28 0 25 0;
#X connect 30 0 13 0;
#X connect 31 0 41 0;
#X connect 32 0 31 0;
#X connect 33 0 48 2;
#X connect 34 0 33 0;
#X connect 34 0 62 0;
#X connect 35 0 31 1;
#X connect 36 0 4 0;
#X connect 37 0 38 0;
#X connect 39 0 37 0;
#X connect 40 0 39 0;
#X connect 48 1 35 0;
#X connect 49 0 23 0;
#X connect 49 1 20 0;
#X connect 50 0 52 0;
#X connect 51 0 50 0;
#X connect 52 0 53 0;
#X connect 53 0 55 0;
#X connect 54 0 53 1;
#X connect 56 0 57 0;
#X connect 57 0 50 1;
#X connect 58 0 56 0;
#X connect 59 0 60 0;
#X connect 60 0 50 2;
#X connect 62 0 48 1;
