#N canvas 318 65 1398 866 10;
#X obj 31 146 phasor~ 440;
#X obj 32 195 cos~;
#X obj 202 118 * 0.99;
#X obj 202 140 pack 0 50;
#X obj 202 194 line~;
#X obj 202 96 * 0.00787402;
#X obj 206 48 hsl 128 15 0 127 0 0 empty empty empty -2 -8 0 10 -262144
-1 -1 0 1;
#X obj 32 217 expr~ $v1 < $v2;
#X obj 581 146 sr;
#X floatatom 581 175 5 0 0 0 - - -, f 5;
#X obj 581 122 bng 15 250 50 0 empty empty empty 17 7 0 10 -262144
-1 -1;
#X obj 635 278 hsl 128 15 0 1 0 0 empty empty empty -2 -8 0 10 -262144
-1 -1 0 1;
#X floatatom 632 298 5 0 0 0 - - -, f 5;
#X floatatom 632 375 10 0 0 0 - - -, f 10;
#X msg 687 318 11025;
#X msg 753 319 210;
#X msg 582 321 reset;
#X obj 564 443 hsl 128 15 0 1 0 0 empty empty empty -2 -8 0 10 -262144
-1 -1 0 1;
#X floatatom 571 463 5 0 0 0 - - -, f 5;
#X floatatom 578 559 10 0 0 0 - - -, f 10;
#X floatatom 712 563 10 0 0 0 - - -, f 10;
#X floatatom 632 474 5 0 0 0 - - -, f 5;
#X floatatom 683 485 5 0 0 0 - - -, f 5;
#X obj 578 536 ftoint-wrap;
#X obj 712 539 ftoint-wrap;
#X obj 704 459 bng 15 250 50 0 empty empty empty 17 7 0 10 -262144
-1 -1;
#X obj 639 766 fdecimals;
#X floatatom 690 734 5 0 0 0 - - -, f 5;
#X obj 577 701 hsl 128 15 0 1 0 0 empty empty empty -2 -8 0 10 -262144
-1 -1 0 1;
#X floatatom 575 720 10 0 0 0 - - -, f 10;
#X floatatom 639 788 5 0 0 0 - - -, f 5;
#X obj 632 353 normtorange 44100 0;
#X obj 942 229 clockwerk~;
#X obj 942 200 tgl 15 0 empty empty empty 17 7 0 10 -262144 -1 -1 0
1;
#X obj 1058 139 sr;
#X obj 1058 116 bng 15 250 50 0 empty empty empty 17 7 0 10 -262144
-1 -1;
#X obj 999 183 sr-div;
#X floatatom 999 205 5 0 0 0 - - -, f 5;
#X obj 633 507 sr-div;
#X floatatom 202 162 5 0 0 0 - - -, f 5;
#X obj 275 219 snapshot~;
#X floatatom 275 242 0 0 0 0 - - -;
#X obj 285 192 metro 100;
#X obj 285 157 bng 15 250 50 0 empty empty empty 17 7 0 10 -262144
-1 -1;
#X obj 943 277 pcycik-scope;
#X msg 1017 153 4;
#X text 577 10 test patches for sr \, normtorange \, sr-div \, fdecimals
\, clockwerk~;
#X text 573 674 round to decimals with fdecimals;
#X text 558 414 divide sample rate per int or amount range with sr-div
;
#X text 575 241 transform a normalized range into a bounded range with
normtorange;
#X text 580 80 get the current dsp smaplerate with sr;
#X text 933 78 generate a (rect) clock signal with clockwerk~;
#X connect 0 0 1 0;
#X connect 1 0 7 0;
#X connect 2 0 3 0;
#X connect 3 0 39 0;
#X connect 4 0 7 1;
#X connect 4 0 40 0;
#X connect 5 0 2 0;
#X connect 6 0 5 0;
#X connect 8 0 9 0;
#X connect 10 0 8 0;
#X connect 11 0 12 0;
#X connect 12 0 31 0;
#X connect 14 0 31 1;
#X connect 15 0 31 2;
#X connect 16 0 31 0;
#X connect 17 0 18 0;
#X connect 18 0 38 0;
#X connect 21 0 38 1;
#X connect 22 0 38 2;
#X connect 23 0 19 0;
#X connect 24 0 20 0;
#X connect 25 0 22 0;
#X connect 26 0 30 0;
#X connect 27 0 26 1;
#X connect 28 0 29 0;
#X connect 29 0 26 0;
#X connect 31 0 13 0;
#X connect 32 0 44 0;
#X connect 33 0 32 0;
#X connect 34 0 36 2;
#X connect 35 0 34 0;
#X connect 35 0 45 0;
#X connect 36 1 37 0;
#X connect 37 0 32 1;
#X connect 38 0 23 0;
#X connect 38 1 24 0;
#X connect 39 0 4 0;
#X connect 40 0 41 0;
#X connect 42 0 40 0;
#X connect 43 0 42 0;
#X connect 45 0 36 1;
