#N canvas 355 509 450 300 10;
#X obj 147 165 sidekik-scope;
#X obj 29 164 dac~;
#X obj 230 75 bc-srr~;
#X obj 161 43 sinosc~;
#X msg 161 15 60, f 4;
#X obj 221 21 hsl 128 15 0 1 0 0 empty empty empty -2 -8 0 10 -262144
-1 -1 12200 1;
#X msg 281 42 0;
#X connect 2 0 0 0;
#X connect 2 0 1 0;
#X connect 3 0 2 0;
#X connect 4 0 3 0;
#X connect 5 0 2 1;
#X connect 6 0 2 2;
