#N canvas 326 115 738 545 10;
#X obj 223 189 bc-int16~;
#X obj 222 73 sinosc~;
#X obj 225 44 hsl 128 15 0 127 0 0 empty empty empty -2 -8 0 10 -262144
-1 -1 1900 1;
#X floatatom 261 101 5 0 0 0 - - -, f 5;
#X obj 28 90 sidekik-scope;
#X obj 277 164 hsl 128 15 0 1 0 0 empty empty empty -2 -8 0 10 -262144
-1 -1 8300 1;
#X obj 307 239 pcycik-scope;
#X connect 0 0 6 0;
#X connect 1 0 0 0;
#X connect 1 0 4 0;
#X connect 1 1 3 0;
#X connect 2 0 1 0;
#X connect 5 0 0 1;
