#N canvas 233 155 662 416 10;
#X obj 71 75 inlet;
#X text 19 29 inp i: sample rate;
#X obj 232 73 inlet;
#X text 231 39 inp i: divider;
#X obj 403 70 inlet;
#X text 395 33 inp f: amount [0..1];
#X obj 232 95 i;
#X floatatom 232 117 5 0 0 0 - - -, f 5;
#X obj 403 92 fbounds 1 0;
#X obj 403 114 f;
#X floatatom 403 136 5 0 0 0 - - -, f 5;
#X connect 2 0 6 0;
#X connect 4 0 8 0;
#X connect 6 0 7 0;
#X connect 8 0 9 0;
#X connect 9 0 10 0;
