#N canvas 94 198 1007 680 10;
#X obj 189 45 samplerate~;
#X floatatom 189 67 5 0 0 0 - - -, f 5;
#X obj 204 25 r pd-dsp-started;
#X obj 189 25 bng 15 250 50 0 empty empty empty 17 7 0 10 -262144 -1
-1;
#X obj 385 56 t b b b;
#X obj 204 181 / 1;
#X floatatom 202 281 5 0 0 0 - - -, f 5;
#X obj 37 25 bng 15 250 50 0 empty empty empty 17 7 0 10 -262144 -1
-1;
#X obj 53 25 r pd-dsp-stopped;
#X msg 40 108 0;
#X obj 81 108 t b b;
#X obj 344 281 t b b;
#X obj 509 140 phasor~;
#X obj 510 90 sig~, f 5;
#X obj 655 156 sidekik-scope;
#X floatatom 510 55 5 0 0 0 - - -, f 5;
#X msg 355 147 100;
#X connect 0 0 1 0;
#X connect 1 0 5 0;
#X connect 2 0 0 0;
#X connect 2 0 3 0;
#X connect 2 0 4 0;
#X connect 4 0 1 0;
#X connect 4 1 16 0;
#X connect 4 2 11 0;
#X connect 5 0 6 0;
#X connect 6 0 15 0;
#X connect 8 0 7 0;
#X connect 8 0 9 0;
#X connect 9 0 5 0;
#X connect 10 0 9 0;
#X connect 10 1 16 0;
#X connect 11 0 6 0;
#X connect 12 0 14 0;
#X connect 13 0 12 0;
#X connect 15 0 13 0;
#X connect 16 0 5 1;
