#N canvas 593 315 667 457 10;
#X obj 384 5 cnv 15 250 100 empty empty On/Off 5 10 0 14 -261234 -66577
0;
#X obj 402 46 tgl 15 0 empty empty empty 17 7 0 10 -262144 -1 -1 0
1;
#X msg 402 66 \; pd dsp \$1;
#X obj 385 118 cnv 15 250 280 empty empty DSP-Section 5 10 0 14 -232576
-66577 0;
#X obj 35 117 cnv 15 250 280 empty empty Input-Section 5 10 0 14 -203904
-66577 0;
#X obj 33 5 cnv 15 250 100 empty empty Description 5 10 0 14 -228856
-66577 0;
#N canvas 90 309 450 265 macros-do-not-delete 0;
#N canvas 764 72 450 176 license-text 0;
#X text 20 13 Copyright ©  2017 \, Benjamin Fabricius \, Vanilla
Processors is free software: you can redistribute it and/or modify
it under the terms of the GNU General Public License as published by
the Free Software Foundation \, either version 3 of the License \,
or any later version. This program is distributed in the hope that
it will be useful \, but WITHOUT ANY WARRANTY \; without even the implied
warranty of MERCHANTABILITY or FITNESS FOR A PARTICULAR PURPOSE. See
the GNU General Public License for more details.;
#X restore 15 16 pd license-text;
#X msg 15 61 1;
#X msg 15 83 \; pd-license-text vis \$1;
#X obj 15 39 r open-license-txt!;
#X connect 1 0 2 0;
#X connect 3 0 1 0;
#X restore 494 409 pd macros-do-not-delete;
#X obj 387 413 bng 15 250 50 0 open-license-txt! empty empty 17 7 0
10 -262144 -1 -1;
#X obj 402 413 bng 15 250 50 0 open-license-txt! empty empty 17 7 0
10 -262144 -1 -1;
#X obj 418 413 bng 15 250 50 0 open-license-txt! empty empty 17 7 0
10 -262144 -1 -1;
#X obj 433 413 bng 15 250 50 0 open-license-txt! empty empty 17 7 0
10 -262144 -1 -1;
#X obj 384 408 cnv 15 100 20 empty empty License-Text 15 10 0 10 -233017
-66577 0;
#X obj 37 407 cnv 15 250 35 empty empty empty 15 10 0 10 -233017 -66577
0;
#X text 41 407 Copyright © 2017 \, Benjamin Fabricius;
#X text 41 422 Happy Thoughts Audio - htaudio.de;
#X text 41 29 Title of Patch;
#X text 41 49 Description of Patch functionality, f 39;
#X connect 1 0 2 0;
