#N canvas 818 241 559 426 10;
#X obj 66 57 hsl 128 15 0 1 0 0 empty empty empty -2 -8 0 10 -262144
-1 -1 0 1;
#X obj 256 190 sinosc~;
#X floatatom 256 168 5 0 0 0 - - -, f 5;
#X obj 337 188 sinosc~;
#X floatatom 337 168 5 0 0 0 - - -, f 5;
#X obj 296 306 dac~;
#X floatatom 63 126 5 0 0 0 - - -, f 5;
#X obj 138 152 * -1;
#X obj 138 130 - 1;
#X floatatom 138 174 5 0 0 0 - - -, f 5;
#X text 30 53 dry;
#X text 207 56 wet;
#X text 254 140 dry sig;
#X text 329 139 wet sig;
#X obj 295 274 +~;
#X obj 256 212 *~;
#X obj 337 210 *~;
#X obj 63 99 line;
#X obj 64 77 pack f 500;
#X text 240 83 smoothe out crossfade properly \, remove clicks, f
28;
#X connect 0 0 18 0;
#X connect 1 0 15 0;
#X connect 2 0 1 0;
#X connect 3 0 16 0;
#X connect 4 0 3 0;
#X connect 6 0 15 1;
#X connect 7 0 9 0;
#X connect 8 0 7 0;
#X connect 9 0 16 1;
#X connect 14 0 5 0;
#X connect 14 0 5 1;
#X connect 15 0 14 0;
#X connect 16 0 14 1;
#X connect 17 0 6 0;
#X connect 17 0 8 0;
#X connect 18 0 17 0;
