#N canvas 72 118 450 300 10;
#X obj 176 16 bng 15 250 50 0 empty empty empty 17 7 0 10 -262144 -1
-1;
#X obj 289 84 f 0;
#X obj 223 138 +;
#X obj 223 205 s \$0-acc;
#X obj 304 49 r \$0-acc;
#X floatatom 223 160 5 0 0 0 - - -, f 5;
#X floatatom 223 74 5 0 0 0 - - -, f 5;
#X floatatom 222 22 5 0 0 0 - - -, f 5;
#X obj 223 52 t f b;
#X msg 339 85 0;
#X connect 0 0 7 0;
#X connect 1 0 2 1;
#X connect 2 0 5 0;
#X connect 4 0 1 1;
#X connect 5 0 3 0;
#X connect 6 0 2 0;
#X connect 7 0 8 0;
#X connect 8 0 6 0;
#X connect 8 1 1 0;
#X connect 9 0 1 1;
