#N canvas 945 391 450 300 10;
#X floatatom 30 29 5 0 0 0 - - -, f 5;
#X obj 30 53 sinosc~;
#X obj 230 115 hsl 128 15 0 1 0 0 empty empty empty -2 -8 0 10 -262144
-1 -1 2800 1;
#X obj 186 219 dac~;
#X floatatom 129 90 5 0 0 0 - - -, f 5;
#X obj 176 155 bc-int16~;
#X obj 175 61 adc~;
#X connect 0 0 1 0;
#X connect 1 0 5 0;
#X connect 1 1 4 0;
#X connect 2 0 5 1;
