#N canvas 357 279 450 300 10;
#X obj 69 142 spigot;
#X floatatom 106 81 5 0 0 0 - - -, f 5;
#X floatatom 69 185 5 0 0 0 - - -, f 5;
#X floatatom 118 127 5 0 0 0 - - -, f 5;
#X obj 106 56 f;
#X obj 69 204 outlet;
#X obj 106 105 expr $f1 >= \$1;
#X floatatom 69 82 5 0 0 0 - - -, f 5;
#X obj 69 57 f;
#X obj 69 27 inlet;
#X obj 106 26 inlet;
#X obj 70 159 bng 15 250 50 0 empty empty empty 17 7 0 10 -262144 -1
-1;
#X connect 0 0 2 0;
#X connect 0 0 11 0;
#X connect 1 0 6 0;
#X connect 2 0 5 0;
#X connect 4 0 1 0;
#X connect 6 0 0 1;
#X connect 6 0 3 0;
#X connect 7 0 0 0;
#X connect 8 0 7 0;
#X connect 9 0 8 0;
#X connect 10 0 4 0;
