#N canvas -813 164 508 349 10;
#X obj 85 34 inlet;
#X text 48 207 Convert float to double precision float that can be
used as percent value.;
#X floatatom 1248 320 5 0 0 0 - - -, f 5;
#X obj 1248 339 * 100;
#X obj 1248 361 ftoint-wrap;
#X obj 1248 383 / 100;
#X floatatom 1248 405 5 0 0 0 - - -, f 5;
#X floatatom 1248 320 5 0 0 0 - - -, f 5;
#X obj 1248 339 * 100;
#X obj 1248 361 ftoint-wrap;
#X obj 1248 383 / 100;
#X floatatom 1248 405 5 0 0 0 - - -, f 5;
#X floatatom 85 56 5 0 0 0 - - -, f 5;
#X obj 85 75 * 100;
#X obj 85 97 ftoint-wrap;
#X obj 85 119 / 100;
#X floatatom 85 141 5 0 0 0 - - -, f 5;
#X obj 85 160 outlet;
#X connect 0 0 12 0;
#X connect 2 0 3 0;
#X connect 3 0 4 0;
#X connect 4 0 5 0;
#X connect 5 0 6 0;
#X connect 7 0 8 0;
#X connect 8 0 9 0;
#X connect 9 0 10 0;
#X connect 10 0 11 0;
#X connect 12 0 13 0;
#X connect 13 0 14 0;
#X connect 14 0 15 0;
#X connect 15 0 16 0;
#X connect 16 0 17 0;
