#N canvas 675 606 450 300 10;
#X obj 36 32 inlet;
#X obj 36 136 outlet;
#X obj 77 73 wrap;
#X obj 36 99 - 0;
#X obj 83 136 outlet;
#X connect 0 0 2 0;
#X connect 0 0 3 0;
#X connect 2 0 3 1;
#X connect 2 0 4 0;
#X connect 3 0 1 0;
