#N canvas 906 432 613 438 10;
#X obj 178 90 inlet;
#X obj 178 298 outlet;
#X obj 279 111 loadbang;
#X obj 178 182 *;
#X obj 279 243 f \$1;
#X obj 279 265 - \$2;
#X obj 178 235 + \$2;
#X obj 399 110 inlet;
#X obj 516 88 inlet;
#X obj 399 132 f;
#X obj 516 109 f;
#X floatatom 399 154 5 0 0 0 - - -, f 5;
#X floatatom 516 131 5 0 0 0 - - -, f 5;
#X floatatom 178 204 5 0 0 0 - - -, f 5;
#X floatatom 178 257 5 0 0 0 - - -, f 5;
#X floatatom 279 287 5 0 0 0 - - -, f 5;
#X obj 516 150 t b f;
#X text 332 128 high bound;
#X text 453 116 low bound;
#X text 175 344 normrange expects input between 0..1 (normalized inp
range) and transform the input to an output range between low and high
bounds. High and low bound can be set via initializer arguments or
inlet 1 (high) and 2 (low).;
#X obj 178 112 route reset;
#X obj 105 182 s \$0-grst;
#X obj 452 57 r \$0-rst-2;
#X obj 349 59 r \$0-rst-1;
#X text 22 43 float: normalized input [0..1];
#X text 22 61 msg: reset -> resets to initializer val bounds;
#X obj 15 218 cnv 15 130 200 empty empty ResetWires 0 10 0 10 -233017
-66577 0;
#X obj 28 287 t b b;
#X obj 28 257 r \$0-grst;
#X obj 28 354 f \$1;
#X obj 66 317 f \$2;
#X obj 66 341 s \$0-rst-2;
#X obj 28 376 s \$0-rst-1;
#X text 25 131 route splits cmd from f input.;
#X text 21 3 normtorange: transform normalized values to output bounded
range;
#X connect 0 0 20 0;
#X connect 2 0 4 0;
#X connect 3 0 13 0;
#X connect 4 0 5 0;
#X connect 5 0 15 0;
#X connect 6 0 14 0;
#X connect 7 0 9 0;
#X connect 8 0 10 0;
#X connect 9 0 11 0;
#X connect 10 0 12 0;
#X connect 11 0 4 0;
#X connect 12 0 16 0;
#X connect 13 0 6 0;
#X connect 14 0 1 0;
#X connect 15 0 3 1;
#X connect 16 0 9 0;
#X connect 16 1 5 1;
#X connect 16 1 6 1;
#X connect 20 0 21 0;
#X connect 20 1 3 0;
#X connect 22 0 10 0;
#X connect 23 0 9 0;
#X connect 27 0 29 0;
#X connect 27 1 30 0;
#X connect 28 0 27 0;
#X connect 29 0 32 0;
#X connect 30 0 31 0;
