#N canvas 179 187 450 300 10;
#X text 18 23 sinosc is a convenient abstraction for generating a pitch
driven sine oscillator aimed at testing.;
#X obj 39 99 inlet;
#X text 14 68 inp: (int) pitch [hot];
#X obj 39 165 mtof;
#X obj 39 144 line;
#X obj 39 121 pack f 50;
#X obj 39 187 osc~;
#X obj 39 209 outlet~;
#X connect 1 0 5 0;
#X connect 3 0 6 0;
#X connect 4 0 3 0;
#X connect 5 0 4 0;
#X connect 6 0 7 0;
