#N canvas 319 0 966 1022 10;
#X obj 160 75 samplerate~;
#X floatatom 160 96 5 0 0 0 - - -, f 5;
#X obj 160 34 r pd-dsp-started;
#X obj 160 55 bng 15 250 50 0 empty empty empty 17 7 0 10 -262144 -1
-1;
#X obj 44 55 bng 15 250 50 0 empty empty empty 17 7 0 10 -262144 -1
-1;
#X obj 44 34 r pd-dsp-stopped;
#X obj 44 79 f 1;
#X obj 159 174 f;
#X floatatom 159 222 5 0 0 0 - - -, f 5;
#X obj 159 241 / 1;
#X obj 270 146 inlet;
#X obj 159 263 ftoint-wrap;
#X msg 57 224 0;
#X obj 322 147 inlet;
#X obj 270 168 t b b;
#X obj 44 101 s calc_stopclk;
#X obj 57 201 r calc_stopclk;
#X obj 159 340 outlet;
#X obj 159 285 f;
#X floatatom 526 59 5 0 0 0 - - -, f 5;
#X obj 322 169 f 1;
#X obj 526 78 sig~;
#X obj 526 100 phasor~;
#X obj 526 122 expr~ $v1 > 0.5;
#X obj 526 144 *~ 2;
#X obj 526 166 -~ 1;
#X obj 526 188 outlet~;
#X obj 322 221 fbounds 0.99 0.01;
#X floatatom 322 244 5 0 0 0 - - -, f 5;
#X floatatom 322 191 5 0 0 0 - - -, f 5;
#X obj 322 131 bng 15 250 50 0 empty empty empty 17 7 0 10 -262144
-1 -1;
#X obj 270 130 bng 15 250 50 0 empty empty empty 17 7 0 10 -262144
-1 -1;
#X floatatom 578 318 5 0 0 0 - - -, f 5;
#X msg 497 316 100;
#X floatatom 497 369 5 0 0 0 - - -, f 5;
#X obj 497 347 expr-gate-lt 1.53;
#X obj 160 115 s \$0-calc_smplrt;
#X obj 159 146 r \$0-calc_smplrt;
#X obj 186 312 s \$0-calc_inc;
#X obj 526 37 r \$0-calc_inc;
#X obj 771 469 f 0;
#X floatatom 771 491 5 0 0 0 - - -, f 5;
#X obj 771 332 moses 1;
#X obj 822 412 -;
#X msg 810 386 1;
#X floatatom 822 434 5 0 0 0 - - -, f 5;
#X msg 809 246 0.5;
#X floatatom 837 387 5 0 0 0 - - -, f 5;
#X obj 771 510 s \$0-c_fdbk;
#X obj 683 231 f 0;
#X floatatom 738 248 5 0 0 0 - - -, f 5;
#X obj 771 283 +;
#X obj 782 135 tgl 15 0 empty empty empty 17 7 0 10 -262144 -1 -1 0
1;
#X obj 766 157 bng 15 250 50 0 empty empty empty 17 7 0 10 -262144
-1 -1;
#X floatatom 771 305 5 0 0 0 - - -, f 5;
#X obj 782 178 t b b;
#X obj 754 334 bng 15 250 50 0 empty empty empty 17 7 0 10 -262144
-1 -1;
#X obj 819 334 bng 15 250 50 0 empty empty empty 17 7 0 10 -262144
-1 -1;
#X obj 698 179 r \$0-c_fdbk;
#X obj 810 359 t b f b;
#X obj 886 387 bng 15 250 50 0 empty empty empty 17 7 0 10 -262144
-1 -1;
#X obj 782 156 metro 500;
#X obj 51 508 hsl 128 15 0 1 0 0 empty empty empty -2 -8 0 10 -262144
-1 -1 0 1;
#X obj 48 548 fbounds 0.99 0.01;
#X floatatom 48 570 5 0 0 0 - - -, f 5;
#X obj 480 717 pcycik-scope;
#X obj 504 575 sidekik-scope;
#X obj 111 710 phasor~ 22000;
#X floatatom 112 674 5 0 0 0 - - -, f 5;
#X connect 0 0 1 0;
#X connect 1 0 36 0;
#X connect 2 0 0 0;
#X connect 2 0 3 0;
#X connect 5 0 4 0;
#X connect 5 0 6 0;
#X connect 6 0 15 0;
#X connect 7 0 8 0;
#X connect 8 0 9 0;
#X connect 9 0 11 0;
#X connect 10 0 14 0;
#X connect 10 0 31 0;
#X connect 11 0 18 0;
#X connect 12 0 9 0;
#X connect 13 0 20 0;
#X connect 13 0 30 0;
#X connect 14 0 8 0;
#X connect 16 0 12 0;
#X connect 18 0 17 0;
#X connect 18 0 38 0;
#X connect 19 0 21 0;
#X connect 20 0 29 0;
#X connect 21 0 22 0;
#X connect 22 0 23 0;
#X connect 23 0 24 0;
#X connect 24 0 25 0;
#X connect 25 0 26 0;
#X connect 27 0 28 0;
#X connect 29 0 27 0;
#X connect 32 0 35 1;
#X connect 33 0 35 0;
#X connect 35 0 34 0;
#X connect 37 0 7 0;
#X connect 39 0 19 0;
#X connect 40 0 41 0;
#X connect 41 0 48 0;
#X connect 42 0 40 0;
#X connect 42 0 56 0;
#X connect 42 1 57 0;
#X connect 42 1 59 0;
#X connect 43 0 45 0;
#X connect 44 0 43 0;
#X connect 45 0 40 0;
#X connect 46 0 51 1;
#X connect 47 0 43 1;
#X connect 49 0 50 0;
#X connect 50 0 51 0;
#X connect 51 0 54 0;
#X connect 52 0 61 0;
#X connect 54 0 42 0;
#X connect 55 0 49 0;
#X connect 55 1 46 0;
#X connect 58 0 49 1;
#X connect 59 0 44 0;
#X connect 59 1 47 0;
#X connect 59 2 60 0;
#X connect 61 0 53 0;
#X connect 61 0 55 0;
#X connect 62 0 63 0;
#X connect 63 0 64 0;
#X connect 67 0 66 0;
#X connect 67 0 65 0;
#X connect 68 0 67 0;
