#N canvas 145 50 1748 1022 10;
#X obj 160 75 samplerate~;
#X floatatom 160 96 5 0 0 0 - - -, f 5;
#X obj 160 34 r pd-dsp-started;
#X obj 160 55 bng 15 250 50 0 empty empty empty 17 7 0 10 -262144 -1
-1;
#X obj 44 55 bng 15 250 50 0 empty empty empty 17 7 0 10 -262144 -1
-1;
#X obj 44 34 r pd-dsp-stopped;
#X obj 44 79 f 1;
#X obj 159 174 f;
#X floatatom 159 222 5 0 0 0 - - -, f 5;
#X obj 159 241 / 1;
#X obj 270 146 inlet;
#X obj 159 263 ftoint-wrap;
#X msg 57 224 0;
#X obj 322 147 inlet;
#X obj 270 168 t b b;
#X obj 44 101 s calc_stopclk;
#X obj 57 201 r calc_stopclk;
#X obj 159 340 outlet;
#X obj 159 285 f;
#X floatatom 526 59 5 0 0 0 - - -, f 5;
#X obj 322 169 f 1;
#X obj 526 78 sig~;
#X obj 526 100 phasor~;
#X obj 526 122 expr~ $v1 > 0.5;
#X obj 526 144 *~ 2;
#X obj 526 166 -~ 1;
#X obj 526 188 outlet~;
#X obj 322 221 fbounds 0.99 0.01;
#X floatatom 322 244 5 0 0 0 - - -, f 5;
#X floatatom 322 191 5 0 0 0 - - -, f 5;
#X obj 322 131 bng 15 250 50 0 empty empty empty 17 7 0 10 -262144
-1 -1;
#X obj 270 130 bng 15 250 50 0 empty empty empty 17 7 0 10 -262144
-1 -1;
#X floatatom 578 318 5 0 0 0 - - -, f 5;
#X msg 497 316 100;
#X floatatom 497 369 5 0 0 0 - - -, f 5;
#X obj 497 347 expr-gate-lt 1.53;
#X obj 160 115 s \$0-calc_smplrt;
#X obj 159 146 r \$0-calc_smplrt;
#X obj 186 312 s \$0-calc_inc;
#X obj 526 37 r \$0-calc_inc;
#X obj 771 469 f 0;
#X floatatom 771 491 5 0 0 0 - - -, f 5;
#X obj 771 332 moses 1;
#X obj 822 412 -;
#X msg 810 386 1;
#X floatatom 822 434 5 0 0 0 - - -, f 5;
#X msg 809 246 0.5;
#X floatatom 837 387 5 0 0 0 - - -, f 5;
#X obj 771 510 s \$0-c_fdbk;
#X obj 683 231 f 0;
#X floatatom 738 248 5 0 0 0 - - -, f 5;
#X obj 771 283 +;
#X obj 782 135 tgl 15 0 empty empty empty 17 7 0 10 -262144 -1 -1 0
1;
#X obj 766 157 bng 15 250 50 0 empty empty empty 17 7 0 10 -262144
-1 -1;
#X floatatom 771 305 5 0 0 0 - - -, f 5;
#X obj 782 178 t b b;
#X obj 754 334 bng 15 250 50 0 empty empty empty 17 7 0 10 -262144
-1 -1;
#X obj 819 334 bng 15 250 50 0 empty empty empty 17 7 0 10 -262144
-1 -1;
#X obj 698 179 r \$0-c_fdbk;
#X obj 810 359 t b f b;
#X obj 886 387 bng 15 250 50 0 empty empty empty 17 7 0 10 -262144
-1 -1;
#X obj 782 156 metro 500;
#X obj 480 717 pcycik-scope;
#X obj 504 575 sidekik-scope;
#X obj 111 710 phasor~ 22000;
#X floatatom 112 674 5 0 0 0 - - -, f 5;
#X obj 1038 331 bng 15 250 50 0 empty empty empty 17 7 0 10 -262144
-1 -1;
#X obj 1037 280 metro 1;
#X obj 1098 59 r \$0-calc_smplrt;
#X floatatom 1098 132 5 0 0 0 - - -, f 5;
#X msg 1098 248 tempo 4 samp;
#X msg 1098 227 set tempo \$1 samp;
#X obj 1037 231 t b b;
#X msg 982 248 stop;
#X obj 1098 81 t f b;
#X obj 1098 155 /;
#X floatatom 1098 203 5 0 0 0 - - -, f 5;
#X obj 983 181 r calc_stopclk;
#X msg 1194 175 9261;
#X obj 1364 57 r \$0-calc_smplrt;
#X obj 1364 79 t f b;
#X floatatom 1365 102 5 0 0 0 - - -, f 5;
#X floatatom 1365 143 5 0 0 0 - - -, f 5;
#X obj 1365 162 s \$0-calc-percspd;
#X obj 1194 106 r \$0-calc-percspd;
#X msg 1194 128 set \$1;
#X obj 1365 121 *;
#X obj 1370 237 hsl 128 15 1 0 0 0 empty empty empty -2 -8 0 10 -262144
-1 -1 10000 1;
#X floatatom 1367 303 5 0 0 0 - - -, f 5;
#X obj 1367 322 ftof-percent;
#X floatatom 1367 344 5 0 0 0 - - -, f 5;
#X obj 1367 363 s \$0-calc-percentsmplrt;
#X obj 1489 56 r \$0-calc-percentsmplrt;
#X msg 1489 78 set \$1;
#X msg 1422 104 0.21;
#X obj 1098 177 ftoint-wrap;
#X obj 1419 79 t b b;
#X obj 1193 750 bng 15 250 50 0 empty empty empty 17 7 0 10 -262144
-1 -1;
#X msg 1061 587 stop;
#X floatatom 1284 539 5 0 0 0 - - -, f 5;
#X obj 1062 520 r calc_stopclk;
#X obj 1227 446 r \$0-calc-percspd;
#X obj 1166 415 r \$0-calc_smplrt;
#X obj 1367 257 fbounds 1 0;
#X obj 1227 468 moses 0.01;
#X obj 1205 469 bng 15 250 50 0 empty empty empty 17 7 0 10 -262144
-1 -1;
#X obj 1297 468 bng 15 250 50 0 empty empty empty 17 7 0 10 -262144
-1 -1;
#X obj 1193 713 metro 1;
#X obj 1251 820 bng 15 250 50 0 empty empty empty 17 7 0 10 -262144
-1 -1;
#X obj 1249 762 tgl 15 0 empty empty empty 17 7 0 10 -262144 -1 -1
0 1;
#X obj 1251 788 metro 1;
#X msg 1309 746 tempo;
#X floatatom 1229 543 5 0 0 0 - - -, f 5;
#X obj 1166 570 t f b;
#X obj 1227 490 t b b;
#X obj 1286 491 t f b b;
#X obj 1266 571 /;
#X floatatom 1266 621 5 0 0 0 - - -, f 5;
#X msg 1266 640 set tempo \$1 samp;
#X obj 1207 515 f 44100;
#X obj 1266 593 ftoint-wrap;
#X obj 1333 539 f 1;
#X msg 1266 687 tempo 4 samp;
#X obj 1214 647 t b;
#X connect 0 0 1 0;
#X connect 1 0 36 0;
#X connect 2 0 0 0;
#X connect 2 0 3 0;
#X connect 5 0 4 0;
#X connect 5 0 6 0;
#X connect 6 0 15 0;
#X connect 7 0 8 0;
#X connect 8 0 9 0;
#X connect 9 0 11 0;
#X connect 10 0 14 0;
#X connect 10 0 31 0;
#X connect 11 0 18 0;
#X connect 12 0 9 0;
#X connect 13 0 20 0;
#X connect 13 0 30 0;
#X connect 14 0 8 0;
#X connect 16 0 12 0;
#X connect 18 0 17 0;
#X connect 18 0 38 0;
#X connect 19 0 21 0;
#X connect 20 0 29 0;
#X connect 21 0 22 0;
#X connect 22 0 23 0;
#X connect 23 0 24 0;
#X connect 24 0 25 0;
#X connect 25 0 26 0;
#X connect 27 0 28 0;
#X connect 29 0 27 0;
#X connect 32 0 35 1;
#X connect 33 0 35 0;
#X connect 35 0 34 0;
#X connect 37 0 7 0;
#X connect 39 0 19 0;
#X connect 40 0 41 0;
#X connect 41 0 48 0;
#X connect 42 0 40 0;
#X connect 42 0 56 0;
#X connect 42 1 57 0;
#X connect 42 1 59 0;
#X connect 43 0 45 0;
#X connect 44 0 43 0;
#X connect 45 0 40 0;
#X connect 46 0 51 1;
#X connect 47 0 43 1;
#X connect 49 0 50 0;
#X connect 50 0 51 0;
#X connect 51 0 54 0;
#X connect 52 0 61 0;
#X connect 54 0 42 0;
#X connect 55 0 49 0;
#X connect 55 1 46 0;
#X connect 58 0 49 1;
#X connect 59 0 44 0;
#X connect 59 1 47 0;
#X connect 59 2 60 0;
#X connect 61 0 53 0;
#X connect 61 0 55 0;
#X connect 64 0 63 0;
#X connect 64 0 62 0;
#X connect 65 0 64 0;
#X connect 67 0 66 0;
#X connect 68 0 74 0;
#X connect 69 0 75 0;
#X connect 70 0 67 0;
#X connect 71 0 70 0;
#X connect 72 0 67 0;
#X connect 72 1 70 0;
#X connect 73 0 67 0;
#X connect 74 0 69 0;
#X connect 74 1 78 0;
#X connect 75 0 95 0;
#X connect 76 0 71 0;
#X connect 76 0 72 0;
#X connect 77 0 73 0;
#X connect 78 0 75 1;
#X connect 79 0 80 0;
#X connect 80 0 81 0;
#X connect 80 1 94 0;
#X connect 81 0 86 0;
#X connect 82 0 83 0;
#X connect 84 0 85 0;
#X connect 85 0 78 0;
#X connect 86 0 82 0;
#X connect 87 0 103 0;
#X connect 88 0 89 0;
#X connect 89 0 90 0;
#X connect 90 0 91 0;
#X connect 92 0 93 0;
#X connect 93 0 94 0;
#X connect 93 0 96 0;
#X connect 94 0 86 1;
#X connect 95 0 76 0;
#X connect 96 0 81 0;
#X connect 96 1 94 0;
#X connect 98 0 107 0;
#X connect 99 0 116 1;
#X connect 100 0 98 0;
#X connect 101 0 104 0;
#X connect 102 0 113 0;
#X connect 102 0 119 0;
#X connect 102 0 121 1;
#X connect 102 0 123 0;
#X connect 103 0 88 0;
#X connect 104 0 105 0;
#X connect 104 0 114 0;
#X connect 104 1 106 0;
#X connect 104 1 115 0;
#X connect 107 0 97 0;
#X connect 109 0 110 0;
#X connect 110 0 108 0;
#X connect 112 0 116 0;
#X connect 113 0 112 0;
#X connect 113 1 107 0;
#X connect 114 0 119 0;
#X connect 114 1 121 0;
#X connect 115 0 99 0;
#X connect 115 1 119 0;
#X connect 115 2 99 0;
#X connect 116 0 120 0;
#X connect 117 0 118 0;
#X connect 118 0 122 0;
#X connect 119 0 112 0;
#X connect 120 0 117 0;
#X connect 121 0 116 1;
#X connect 122 0 107 0;
#X connect 123 0 122 0;
