#N canvas 116 406 822 542 10;
#X obj 160 75 samplerate~;
#X floatatom 160 96 5 0 0 0 - - -, f 5;
#X obj 160 34 r pd-dsp-started;
#X obj 160 55 bng 15 250 50 0 empty empty empty 17 7 0 10 -262144 -1
-1;
#X obj 44 55 bng 15 250 50 0 empty empty empty 17 7 0 10 -262144 -1
-1;
#X obj 44 34 r pd-dsp-stopped;
#X obj 44 79 f 1;
#X obj 159 174 f;
#X floatatom 159 222 5 0 0 0 - - -, f 5;
#X obj 159 241 / 1;
#X obj 276 146 inlet;
#X obj 159 316 ftoint-wrap;
#X msg 57 224 0;
#X obj 328 147 inlet;
#X obj 276 168 t b b;
#X obj 44 101 s calc_stopclk;
#X obj 57 201 r calc_stopclk;
#X obj 159 393 outlet;
#X obj 159 338 f;
#X floatatom 526 59 5 0 0 0 - - -, f 5;
#X obj 328 169 f 1;
#X floatatom 328 191 5 0 0 0 - - -, f 5;
#X obj 526 78 sig~;
#X obj 526 100 phasor~;
#X obj 526 122 expr~ $v1 > 0.5;
#X obj 526 144 *~ 2;
#X obj 526 166 -~ 1;
#X obj 526 188 outlet~;
#X floatatom 159 264 5 0 0 0 - - -, f 5;
#X obj 526 37 r \$0-calc_inc;
#X obj 160 114 s \$0-calc_smplrt;
#X obj 159 146 r \$0-calc_smplrt;
#X obj 169 368 s \$0-calc_inc;
#X connect 0 0 1 0;
#X connect 1 0 30 0;
#X connect 2 0 0 0;
#X connect 2 0 3 0;
#X connect 5 0 4 0;
#X connect 5 0 6 0;
#X connect 6 0 15 0;
#X connect 7 0 8 0;
#X connect 8 0 9 0;
#X connect 9 0 28 0;
#X connect 10 0 14 0;
#X connect 11 0 18 0;
#X connect 12 0 9 0;
#X connect 13 0 20 0;
#X connect 14 0 8 0;
#X connect 14 1 21 0;
#X connect 16 0 12 0;
#X connect 18 0 17 0;
#X connect 18 0 32 0;
#X connect 19 0 22 0;
#X connect 20 0 21 0;
#X connect 21 0 9 1;
#X connect 22 0 23 0;
#X connect 23 0 24 0;
#X connect 24 0 25 0;
#X connect 25 0 26 0;
#X connect 26 0 27 0;
#X connect 28 0 11 0;
#X connect 29 0 19 0;
#X connect 31 0 7 0;
