#N canvas 331 50 1099 1022 10;
#X obj 37 30 hsl 128 15 0 1 0 0 empty empty empty -2 -8 0 10 -262144
-1 -1 2600 1;
#X obj 34 60 normtorange 16 1;
#X floatatom 34 104 5 0 0 0 - - -, f 5;
#X obj 34 123 s \$0-calc-bits;
#X obj 36 207 r \$0-calc-bits;
#X obj 36 276 <<;
#X msg 36 229 1 \$1;
#X obj 36 251 unpack f f;
#X floatatom 36 298 5 0 0 0 - - -, f 5;
#X obj 36 317 s \$0-calc-steps;
#X obj 469 180 r \$0-calc-steps;
#X obj 393 181 inlet~;
#X obj 469 202 sig~;
#X obj 341 225 sig~;
#X obj 483 405 snapshot~;
#X floatatom 483 427 10 0 0 0 - - -, f 10;
#X obj 341 179 bng 15 250 50 0 empty empty empty 17 7 0 10 -262144
-1 -1;
#X text 550 470 todo: make an audio abstraction that does ftoint-div
and ftoint-div... and then add it in here.;
#X obj 578 535 ftoint-wrap;
#X obj 34 82 ftoint-wrap;
#X floatatom 739 542 5 0 0 0 - - -, f 5;
#X obj 739 561 i;
#X floatatom 739 583 5 0 0 0 - - -, f 5;
#X obj 393 253 *~;
#X obj 417 292 wrap~;
#X obj 341 203 f 1.28;
#X obj 483 242 metro 100;
#X obj 454 362 /~;
#X obj 395 337 -~;
#X obj 308 398 snapshot~;
#X floatatom 308 420 10 0 0 0 - - -, f 10;
#X obj 753 80 sidekik-scope;
#X obj 378 516 sidekik-scope;
#X obj 284 538 dac~;
#X obj 361 94 sinosc~;
#X floatatom 363 64 5 0 0 0 - - -, f 5;
#X obj 288 484 *~ 0;
#X obj 220 467 i 1;
#X obj 245 467 i 0;
#X obj 220 447 bng 15 250 50 0 empty empty empty 17 7 0 10 -262144
-1 -1;
#X obj 245 446 bng 15 250 50 0 empty empty empty 17 7 0 10 -262144
-1 -1;
#X obj 250 304 *~ 0;
#X obj 182 287 i 1;
#X obj 207 287 i 0;
#X obj 182 267 bng 15 250 50 0 empty empty empty 17 7 0 10 -262144
-1 -1;
#X obj 207 266 bng 15 250 50 0 empty empty empty 17 7 0 10 -262144
-1 -1;
#X connect 0 0 1 0;
#X connect 1 0 19 0;
#X connect 2 0 3 0;
#X connect 4 0 6 0;
#X connect 5 0 8 0;
#X connect 6 0 7 0;
#X connect 7 0 5 0;
#X connect 7 1 5 1;
#X connect 8 0 9 0;
#X connect 10 0 12 0;
#X connect 11 0 23 0;
#X connect 12 0 23 1;
#X connect 12 0 27 1;
#X connect 14 0 15 0;
#X connect 16 0 25 0;
#X connect 16 0 26 0;
#X connect 19 0 2 0;
#X connect 20 0 21 0;
#X connect 21 0 22 0;
#X connect 23 0 24 0;
#X connect 23 0 28 0;
#X connect 24 0 28 1;
#X connect 25 0 13 0;
#X connect 26 0 14 0;
#X connect 26 0 29 0;
#X connect 27 0 14 0;
#X connect 27 0 32 0;
#X connect 27 0 36 0;
#X connect 28 0 27 0;
#X connect 29 0 30 0;
#X connect 34 0 31 0;
#X connect 34 0 23 0;
#X connect 34 0 29 0;
#X connect 34 0 41 0;
#X connect 35 0 34 0;
#X connect 36 0 33 0;
#X connect 36 0 33 1;
#X connect 37 0 36 1;
#X connect 38 0 36 1;
#X connect 39 0 37 0;
#X connect 40 0 38 0;
#X connect 41 0 33 0;
#X connect 41 0 33 1;
#X connect 42 0 41 1;
#X connect 43 0 41 1;
#X connect 44 0 42 0;
#X connect 45 0 43 0;
