#N canvas 234 143 1057 633 10;
#X obj 7 7 cnv 15 350 150 empty empty empty 20 12 0 14 -233017 -66577
0;
#X obj 8 171 cnv 15 350 200 empty empty Input_Section 5 12 0 14 -203904
-66577 0;
#X floatatom 29 236 5 0 0 0 - - -, f 5;
#X obj 29 259 sinosc~;
#X obj 173 239 hsl 128 15 0 0.5 0 0 empty empty empty -2 -8 0 10 -262144
-1 -1 0 1;
#X floatatom 170 259 5 0 0 0 - - -, f 5;
#X obj 30 292 send~ \$0-test-inp;
#X obj 170 291 s \$0-calc-srramt;
#X text 15 202 set input osc pitch, f 12;
#X text 168 204 sample rate to downsample to, f 25;
#X text 307 237 hi rate;
#X text 120 238 lo rate;
#X obj 508 318 cnv 15 80 30 empty empty empty 20 12 0 14 -261234 -66577
0;
#X obj 596 256 cnv 15 80 30 empty empty empty 20 12 0 14 -261234 -66577
0;
#X obj 521 263 lop~ 2000;
#X obj 521 289 lop~ 2000;
#X obj 521 326 samphold~;
#X obj 610 140 r pd-dsp-started;
#X obj 571 112 r pd-dsp-stopped;
#X obj 604 263 clockwerk~;
#X obj 834 38 loadbang;
#X obj 834 60 sr;
#X floatatom 834 122 5 0 0 0 - - -, f 5;
#X obj 801 174 sr-div;
#X obj 737 336 sidekik-scope;
#X msg 610 162 1;
#X msg 571 134 0;
#X obj 522 582 dac~;
#X obj 521 378 lop~ 2000;
#X obj 521 400 lop~ 2000;
#X obj 521 436 *~ 0;
#X obj 453 419 i 1;
#X obj 478 419 i 0;
#X obj 453 399 bng 15 250 50 0 empty empty empty 17 7 0 10 -262144
-1 -1;
#X obj 478 398 bng 15 250 50 0 empty empty empty 17 7 0 10 -262144
-1 -1;
#X floatatom 801 202 5 0 0 0 - - -, f 5;
#X obj 856 187 bng 15 250 50 0 empty empty empty 17 7 0 10 -262144
-1 -1;
#X obj 834 82 i 11025;
#X obj 738 465 sidekik-scope;
#X obj 713 110 r \$0-calc-srramt;
#X obj 420 216 receive~ \$0-test-inp;
#X text 896 383 sample clock generated by clockwerk~, f 22;
#X text 897 517 downsampled output signal;
#X text 880 204 clk rate in Hz;
#X text 25 17 sample rate reduction with vanilla processors: use adam~
and eve library abstractions to generate a clock driving the sample
and hold unit to implement downsampling of an audio input. The highlighted
objects in this patch are the main audio effectors responsible for
the downsampling fx., f 50;
#X text 14 573 Copyright by Happy Thoughtz Audio.;
#X text 379 265 input low pass for subtle hi input roll off, f 21
;
#X text 586 373 output low-pass to tame overtones caused by downsampling
distortion., f 21;
#X text 25 112 vp abstractions in this demo patch: adam~: [clockwerk~
\, sinosc~] \, eve: [sr \, sr-div]., f 35;
#X connect 2 0 3 0;
#X connect 3 0 6 0;
#X connect 4 0 5 0;
#X connect 5 0 7 0;
#X connect 14 0 15 0;
#X connect 15 0 16 0;
#X connect 16 0 28 0;
#X connect 17 0 25 0;
#X connect 18 0 26 0;
#X connect 19 0 16 1;
#X connect 19 0 24 0;
#X connect 20 0 21 0;
#X connect 21 0 37 0;
#X connect 22 0 23 2;
#X connect 23 0 35 0;
#X connect 25 0 19 0;
#X connect 26 0 19 0;
#X connect 28 0 29 0;
#X connect 29 0 38 0;
#X connect 29 0 30 0;
#X connect 30 0 27 0;
#X connect 30 0 27 1;
#X connect 31 0 30 1;
#X connect 32 0 30 1;
#X connect 33 0 31 0;
#X connect 34 0 32 0;
#X connect 35 0 19 1;
#X connect 36 0 35 0;
#X connect 37 0 22 0;
#X connect 39 0 23 0;
#X connect 40 0 14 0;
