#N canvas 29 54 861 739 10;
#X obj 340 333 lop~ 2000;
#X obj 340 359 lop~ 2000;
#X obj 340 396 samphold~;
#X obj 429 210 r pd-dsp-started;
#X obj 390 182 r pd-dsp-stopped;
#X obj 423 333 clockwerk~;
#X obj 582 58 loadbang;
#X obj 582 80 sr;
#X floatatom 583 142 5 0 0 0 - - -, f 5;
#X obj 550 194 sr-div;
#X obj 466 386 sidekik-scope;
#X msg 429 232 1;
#X msg 390 204 0;
#X obj 342 652 dac~;
#X obj 340 428 lop~ 2000;
#X obj 340 450 lop~ 2000;
#X obj 340 486 *~ 0;
#X obj 246 469 i 1;
#X obj 271 469 i 0;
#X obj 246 449 bng 15 250 50 0 empty empty empty 17 7 0 10 -262144
-1 -1;
#X obj 271 448 bng 15 250 50 0 empty empty empty 17 7 0 10 -262144
-1 -1;
#X floatatom 92 126 5 0 0 0 - - -, f 5;
#X obj 92 149 sinosc~;
#X obj 236 129 hsl 128 15 0 0.5 0 0 empty empty empty -2 -8 0 10 -262144
-1 -1 800 1;
#X floatatom 233 149 5 0 0 0 - - -, f 5;
#X floatatom 550 222 5 0 0 0 - - -, f 5;
#X obj 605 207 bng 15 250 50 0 empty empty empty 17 7 0 10 -262144
-1 -1;
#X obj 582 102 i 11025;
#X obj 93 182 send~ \$0-test-inp;
#X obj 233 181 s \$0-calc-srramt;
#X obj 467 515 sidekik-scope;
#X obj 462 130 r \$0-calc-srramt;
#X obj 239 286 receive~ \$0-test-inp;
#X text 35 99 set input osc pitch;
#X text 34 25 sample rate reduction with vanilla processors: use adam~
and eve library abstractions to generate a clock driving the sample
and hold unit to implement downsampling of an audio input.;
#X text 625 433 sample clock generated by clockwerk~;
#X text 626 567 downsampled output signal;
#X text 629 224 clk rate in Hz;
#X text 229 102 sample rate to downsample to;
#X text 376 128 hi rate;
#X text 175 128 lo rate;
#X connect 0 0 1 0;
#X connect 1 0 2 0;
#X connect 2 0 14 0;
#X connect 3 0 11 0;
#X connect 4 0 12 0;
#X connect 5 0 2 1;
#X connect 5 0 10 0;
#X connect 6 0 7 0;
#X connect 7 0 27 0;
#X connect 8 0 9 2;
#X connect 9 0 25 0;
#X connect 11 0 5 0;
#X connect 12 0 5 0;
#X connect 14 0 15 0;
#X connect 15 0 30 0;
#X connect 15 0 16 0;
#X connect 16 0 13 0;
#X connect 16 0 13 1;
#X connect 17 0 16 1;
#X connect 18 0 16 1;
#X connect 19 0 17 0;
#X connect 20 0 18 0;
#X connect 21 0 22 0;
#X connect 22 0 28 0;
#X connect 23 0 24 0;
#X connect 24 0 29 0;
#X connect 25 0 5 1;
#X connect 26 0 25 0;
#X connect 27 0 8 0;
#X connect 31 0 9 0;
#X connect 32 0 0 0;
